<svg version="1.1" viewBox="0.0 0.0 96.0 96.0" fill="none" stroke="none" stroke-linecap="square" stroke-miterlimit="10" xmlns:xlink="http://www.w3.org/1999/xlink" xmlns="http://www.w3.org/2000/svg"><clipPath id="p.0"><path d="m0 0l96.0 0l0 96.0l-96.0 0l0 -96.0z" clip-rule="nonzero"/></clipPath><g clip-path="url(#p.0)"><path fill="#000000" fill-opacity="0.0" d="m0 0l96.0 0l0 96.0l-96.0 0z" fill-rule="evenodd"/><defs><radialGradient id="p.1" gradientUnits="userSpaceOnUse" gradientTransform="matrix(7.486748052891877 0.0 0.0 7.486748052891877 0.0 0.0)" spreadMethod="pad" cx="6.412029495942396" cy="6.410977768851755" fx="6.412029495942396" fy="6.410977768851755" r="7.486748218536377"><stop offset="0.0" stop-color="#ff0000"/><stop offset="1.0" stop-color="#990000"/></radialGradient></defs><path fill="url(#p.1)" d="m7.7847767 47.997375l0 0c0 -21.560848 18.007318 -39.03937 40.220474 -39.03937l0 0c10.667133 0 20.89737 4.113065 28.44017 11.434367c7.542801 7.3213024 11.780304 17.251118 11.780304 27.605003l0 0c0 21.560852 -18.007317 39.039368 -40.220474 39.039368l0 0c-22.213154 0 -40.220474 -17.478516 -40.220474 -39.039368zm17.191378 0l0 0c0 12.066315 10.310478 21.847992 23.029095 21.847992c12.71862 0 23.029099 -9.781677 23.029099 -21.847992c0 -12.066315 -10.310478 -21.847994 -23.029099 -21.847994l0 0c-12.7186165 0 -23.029095 9.781679 -23.029095 21.847994z" fill-rule="evenodd"/></g></svg>